<svg xmlns="http://www.w3.org/2000/svg" viewBox="0 0 500 292" role="img" aria-label="Top languages for bobo100">

  <defs>
    <linearGradient id="border" x1="0" y1="0" x2="1" y2="1">
      <stop offset="0%" stop-color="#F72585"/>
      <stop offset="50%" stop-color="#7209B7"/>
      <stop offset="100%" stop-color="#4CC9F0"/>
    </linearGradient>
    <linearGradient id="card-glow" x1="0" y1="0" x2="1" y2="1">
      <stop offset="0%" stop-color="#F72585" stop-opacity="0.08"/>
      <stop offset="100%" stop-color="#3A0CA3" stop-opacity="0.06"/>
    </linearGradient>
  </defs>
  <rect width="500" height="292" rx="16" fill="#0F0E17"/>
  <rect width="500" height="292" rx="16" fill="url(#card-glow)"/>
  <rect width="500" height="292" rx="16" fill="none" stroke="url(#border)" stroke-width="2"/>
  <text x="24" y="36" font-family="'SF Mono', ui-monospace, Menlo, Consolas, monospace" font-size="17" font-weight="700" fill="#FFFFFE">🎨 Most Used Languages</text>
  <line x1="24" y1="48" x2="476" y2="48" stroke="#7209B7" stroke-width="1" opacity="0.4"/>

  <text x="32" y="92" font-family="'SF Mono', ui-monospace, Menlo, Consolas, monospace" font-size="13" font-weight="600" fill="#FFFFFE">Python</text>  <rect x="180" y="80" width="230" height="14" rx="7" fill="#1a1925"/>  <rect x="180" y="80" width="123" height="14" rx="7" fill="#3776AB"/>  <text x="468" y="92" text-anchor="end" font-family="'SF Mono', ui-monospace, Menlo, Consolas, monospace" font-size="12" font-weight="700" fill="#B8C1D1">53.7%</text>
  <text x="32" y="124" font-family="'SF Mono', ui-monospace, Menlo, Consolas, monospace" font-size="13" font-weight="600" fill="#FFFFFE">TypeScript</text>  <rect x="180" y="112" width="230" height="14" rx="7" fill="#1a1925"/>  <rect x="180" y="112" width="58" height="14" rx="7" fill="#3178C6"/>  <text x="468" y="124" text-anchor="end" font-family="'SF Mono', ui-monospace, Menlo, Consolas, monospace" font-size="12" font-weight="700" fill="#B8C1D1">25.6%</text>
  <text x="32" y="156" font-family="'SF Mono', ui-monospace, Menlo, Consolas, monospace" font-size="13" font-weight="600" fill="#FFFFFE">Java</text>  <rect x="180" y="144" width="230" height="14" rx="7" fill="#1a1925"/>  <rect x="180" y="144" width="23" height="14" rx="7" fill="#ED8B00"/>  <text x="468" y="156" text-anchor="end" font-family="'SF Mono', ui-monospace, Menlo, Consolas, monospace" font-size="12" font-weight="700" fill="#B8C1D1">10.3%</text>
  <text x="32" y="188" font-family="'SF Mono', ui-monospace, Menlo, Consolas, monospace" font-size="13" font-weight="600" fill="#FFFFFE">SCSS</text>  <rect x="180" y="176" width="230" height="14" rx="7" fill="#1a1925"/>  <rect x="180" y="176" width="15" height="14" rx="7" fill="#CC6699"/>  <text x="468" y="188" text-anchor="end" font-family="'SF Mono', ui-monospace, Menlo, Consolas, monospace" font-size="12" font-weight="700" fill="#B8C1D1">6.6%</text>
  <text x="32" y="220" font-family="'SF Mono', ui-monospace, Menlo, Consolas, monospace" font-size="13" font-weight="600" fill="#FFFFFE">HTML</text>  <rect x="180" y="208" width="230" height="14" rx="7" fill="#1a1925"/>  <rect x="180" y="208" width="4" height="14" rx="7" fill="#E34F26"/>  <text x="468" y="220" text-anchor="end" font-family="'SF Mono', ui-monospace, Menlo, Consolas, monospace" font-size="12" font-weight="700" fill="#B8C1D1">2.0%</text>
  <text x="32" y="252" font-family="'SF Mono', ui-monospace, Menlo, Consolas, monospace" font-size="13" font-weight="600" fill="#FFFFFE">Kotlin</text>  <rect x="180" y="240" width="230" height="14" rx="7" fill="#1a1925"/>  <rect x="180" y="240" width="4" height="14" rx="7" fill="#7F52FF"/>  <text x="468" y="252" text-anchor="end" font-family="'SF Mono', ui-monospace, Menlo, Consolas, monospace" font-size="12" font-weight="700" fill="#B8C1D1">1.8%</text>
</svg>
