<svg xmlns="http://www.w3.org/2000/svg" viewBox="0 0 500 324" role="img" aria-label="Top languages for bobo100">

  <defs>
    <linearGradient id="border" x1="0" y1="0" x2="1" y2="1">
      <stop offset="0%" stop-color="#F72585"/>
      <stop offset="50%" stop-color="#7209B7"/>
      <stop offset="100%" stop-color="#4CC9F0"/>
    </linearGradient>
    <linearGradient id="card-bg" x1="0" y1="0" x2="0" y2="1">
      <stop offset="0%" stop-color="#15101F"/>
      <stop offset="100%" stop-color="#0F0E1A"/>
    </linearGradient>
  </defs>
  <rect width="500" height="324" rx="20" fill="url(#card-bg)"/>
  <rect width="500" height="324" rx="20" fill="none" stroke="url(#border)" stroke-width="2"/>
  <text x="32" y="40" font-family="'SF Mono', ui-monospace, Menlo, Consolas, monospace" font-size="11" font-weight="600" fill="#94A1B2" letter-spacing="2">MOST  USED  LANGUAGES</text>
  <text x="32" y="64" font-family="'SF Mono', ui-monospace, Menlo, Consolas, monospace" font-size="16" font-weight="700" fill="#FFFFFE">🎨  Top Languages</text>
  <line x1="32" y1="82" x2="468" y2="82" stroke="#2A1F3D" stroke-width="1"/>

  <circle cx="40" cy="112" r="5" fill="#3178C6"/>  <text x="56" y="117" font-family="'SF Mono', ui-monospace, Menlo, Consolas, monospace" font-size="13" font-weight="600" fill="#FFFFFE">TypeScript</text>  <rect x="180" y="104" width="230" height="14" rx="7" fill="#1A1428"/>  <rect x="180" y="104" width="117" height="14" rx="7" fill="#3178C6"/>  <text x="468" y="117" text-anchor="end" font-family="'SF Mono', ui-monospace, Menlo, Consolas, monospace" font-size="12" font-weight="700" fill="#B8C1D1">51.2%</text>
  <circle cx="40" cy="146" r="5" fill="#3776AB"/>  <text x="56" y="151" font-family="'SF Mono', ui-monospace, Menlo, Consolas, monospace" font-size="13" font-weight="600" fill="#FFFFFE">Python</text>  <rect x="180" y="138" width="230" height="14" rx="7" fill="#1A1428"/>  <rect x="180" y="138" width="43" height="14" rx="7" fill="#3776AB"/>  <text x="468" y="151" text-anchor="end" font-family="'SF Mono', ui-monospace, Menlo, Consolas, monospace" font-size="12" font-weight="700" fill="#B8C1D1">19.0%</text>
  <circle cx="40" cy="180" r="5" fill="#F7DF1E"/>  <text x="56" y="185" font-family="'SF Mono', ui-monospace, Menlo, Consolas, monospace" font-size="13" font-weight="600" fill="#FFFFFE">JavaScript</text>  <rect x="180" y="172" width="230" height="14" rx="7" fill="#1A1428"/>  <rect x="180" y="172" width="25" height="14" rx="7" fill="#F7DF1E"/>  <text x="468" y="185" text-anchor="end" font-family="'SF Mono', ui-monospace, Menlo, Consolas, monospace" font-size="12" font-weight="700" fill="#B8C1D1">11.2%</text>
  <circle cx="40" cy="214" r="5" fill="#E34F26"/>  <text x="56" y="219" font-family="'SF Mono', ui-monospace, Menlo, Consolas, monospace" font-size="13" font-weight="600" fill="#FFFFFE">HTML</text>  <rect x="180" y="206" width="230" height="14" rx="7" fill="#1A1428"/>  <rect x="180" y="206" width="19" height="14" rx="7" fill="#E34F26"/>  <text x="468" y="219" text-anchor="end" font-family="'SF Mono', ui-monospace, Menlo, Consolas, monospace" font-size="12" font-weight="700" fill="#B8C1D1">8.7%</text>
  <circle cx="40" cy="248" r="5" fill="#CC6699"/>  <text x="56" y="253" font-family="'SF Mono', ui-monospace, Menlo, Consolas, monospace" font-size="13" font-weight="600" fill="#FFFFFE">SCSS</text>  <rect x="180" y="240" width="230" height="14" rx="7" fill="#1A1428"/>  <rect x="180" y="240" width="16" height="14" rx="7" fill="#CC6699"/>  <text x="468" y="253" text-anchor="end" font-family="'SF Mono', ui-monospace, Menlo, Consolas, monospace" font-size="12" font-weight="700" fill="#B8C1D1">7.0%</text>
  <circle cx="40" cy="282" r="5" fill="#ED8B00"/>  <text x="56" y="287" font-family="'SF Mono', ui-monospace, Menlo, Consolas, monospace" font-size="13" font-weight="600" fill="#FFFFFE">Java</text>  <rect x="180" y="274" width="230" height="14" rx="7" fill="#1A1428"/>  <rect x="180" y="274" width="6" height="14" rx="7" fill="#ED8B00"/>  <text x="468" y="287" text-anchor="end" font-family="'SF Mono', ui-monospace, Menlo, Consolas, monospace" font-size="12" font-weight="700" fill="#B8C1D1">2.9%</text>
</svg>
